<?xml version="1.0" encoding="UTF-8"?>
<svg id="Capa_2" data-name="Capa 2" xmlns="http://www.w3.org/2000/svg" xmlns:xlink="http://www.w3.org/1999/xlink" viewBox="0 0 1453.85 344.94">
  <defs>
    <style>
      .cls-1 {
        fill: #fff;
      }

      .cls-2 {
        filter: url(#outer-glow-1);
      }
    </style>
    <filter id="outer-glow-1" x="0" y="0" width="288.77" height="344.94" filterUnits="userSpaceOnUse">
      <feOffset dx="0" dy="0"/>
      <feGaussianBlur result="blur" stdDeviation="3"/>
      <feFlood flood-color="#375f28" flood-opacity=".5"/>
      <feComposite in2="blur" operator="in"/>
      <feComposite in="SourceGraphic"/>
    </filter>
  </defs>
  <g id="Capa_1-2" data-name="Capa 1">
    <g class="cls-2">
      <path class="cls-1" d="M108.8,334.09l2.58-30.15C30.69,266.89-11.84,175.57,2.88,88.94c31.25,8.67,59.68,27.33,82.98,49.51,1.01.78,1.28,1.93,3,1.49-3.91-50.4,20.27-96.94,49.59-135.91.95-1.12,3.27-4.26,4.77-4.01,29.86,34.24,61.61,92,57.65,140.93,22.49-20.99,53.29-44.88,83.47-51.04,18.07,79.88-20.57,164.67-91.8,206.21-2.36,1.38-12.43,5.58-13.18,6.81l1.88,31.42c.34,5.75-4.23,10.6-9.98,10.6h-52.49c-5.86,0-10.46-5.01-9.96-10.85ZM167.87,329.93l-13.58-107.62c-.32-2.51.17-5.06,1.36-7.3,39.52-73.99,41.68-117.27-12.28-188.07-29.52,38.67-52.36,92.12-31.97,139.95,5.6,12.98,5.99,10.7,22.93,48.27.96,2.13,1.29,4.49.94,6.8-2.28,15.11-11.1,75.27-12.4,107.97h45.01ZM43.87,159.58l76.5,81.97c7.71-48.88-54.85-108.57-96.47-127.5-1.88-.79-6.89-4.04-7.87-.82-3.08,67.97,32.71,146.79,98.84,171.35l2.07-17.49c-21.82-36.82-50.76-70.85-73.07-107.51ZM244.93,159.51c-21.57,37.9-48.17,70.65-71.18,107.59l2.69,17.43c55-22.33,90.22-85.52,95.42-143.46.44-4.37,2.33-26.43.08-28.07s-7.64,1.85-10.09,3.06c-41.72,21.73-97.14,75.57-91.48,125.5l74.56-82.05Z"/>
      <polygon class="cls-1" points="144.86 66.94 135.87 187.94 153.87 187.94 144.86 66.94"/>
    </g>
    <path class="cls-1" d="M338.07.01h53.32c57.36,0,94.54,25.54,94.54,83.81s-37.18,85.28-92.12,85.28h-55.74V.01ZM388.78,137.86c31.44,0,52.96-13.68,52.96-54.04s-21.52-52.57-52.96-52.57h-7.59v106.61h7.59Z"/>
    <path class="cls-1" d="M516.28.01h118.04v32.54h-74.92v33.28h63.8v32.54h-63.8v38.16h77.8v32.54h-120.93V.01Z"/>
    <path class="cls-1" d="M668.7.01h43.12v136.54h73.88v32.54h-117.01V.01Z"/>
    <path class="cls-1" d="M817.19.01h43.12v169.08h-43.12V.01Z"/>
    <path class="cls-1" d="M889.65,85.53C889.65,31.37,931.05.01,978.52.01c24.33,0,43.96,9.93,56.67,21.2l-22.71,24c-9.41-7.57-19.47-12.9-32.99-12.9-25.42,0-45.65,19.52-45.65,51.94s17.81,52.52,44.98,52.52c15.34,0,27.43-6.59,36.52-15.14l22.71,23.5c-15.62,15.78-36.46,23.95-60.77,23.95-47.68,0-87.62-28.57-87.62-83.57Z"/>
    <path class="cls-1" d="M1066.55.01h43.12v169.08h-43.12V.01Z"/>
    <path class="cls-1" d="M1194.22.01h51.66l58.84,169.08h-45.64l-24.29-85.32c-5.17-16.84-10.15-36.88-15.13-54.45h-1.15c-4.5,17.79-9.48,37.62-14.65,54.45l-24.38,85.32h-44.09L1194.22.01ZM1174.48,99.07h90.53v30.15h-90.53v-30.15Z"/>
    <path class="cls-1" d="M1313.11,145.54l24.75-25.68c13.35,10.02,30.63,16.93,45.95,16.93,17.49,0,25.95-5.9,25.95-15.36,0-10.04-10.58-13.27-26.94-19.09l-24.32-8.99c-19.53-6.89-37.91-20.85-37.91-44.54C1320.59,21.71,1348.49.01,1387.77.01c21.61,0,44.33,7.37,60.61,21.41l-21.75,23.58c-12.41-8.2-24.1-12.68-38.87-12.68s-23.58,5.16-23.58,14.3c0,9.8,12.14,13.36,28.6,19.03l23.84,8.36c22.99,8.05,37.22,21.38,37.22,44.39,0,27.13-26.06,50.69-71.01,50.69-24.38,0-50.46-7.99-69.73-23.56Z"/>
    <g>
      <path class="cls-1" d="M338.07,207.23h31.52l35.49,68.49,13.45,30.25h.83c-1.45-14.57-3.93-33.86-3.93-50.09v-48.65h29.3v137.71h-31.51l-35.49-68.66-13.45-30.08h-.84c1.45,15.19,3.93,33.64,3.93,49.87v48.87h-29.3v-137.71Z"/>
      <path class="cls-1" d="M509.45,207.23h36.79l42.72,137.71h-32.55l-17.79-69.74c-3.78-13.77-7.41-30.05-11.05-44.42h-.83c-3.29,14.54-6.92,30.65-10.7,44.42l-17.87,69.74h-31.44l42.72-137.71ZM494.9,287.94h65.45v24.19h-65.45v-24.19Z"/>
      <path class="cls-1" d="M622.4,233.34h-37.44v-26.11h105.63v26.11h-37.44v111.6h-30.75v-111.6Z"/>
      <path class="cls-1" d="M718.35,279.79v-72.56h30.75v75.68c0,26.48,8.39,35.63,23.61,35.63s24.1-9.15,24.1-35.63v-75.68h29.65v72.56c0,45.4-18.56,65.15-53.75,65.15s-54.36-19.75-54.36-65.15Z"/>
      <path class="cls-1" d="M865.19,207.23h48.99c28.85,0,52.5,10.14,52.5,42.88s-23.65,45.27-52.5,45.27h-18.24v49.56h-30.75v-137.71ZM911.67,270.67c16.17,0,24.86-7.01,24.86-20.55s-8.69-18.16-24.86-18.16h-15.73v38.72h15.73ZM908.55,287.18l21.27-19.92,43.41,77.68h-34.41l-30.27-57.76Z"/>
      <path class="cls-1" d="M1024.06,207.23h36.79l42.72,137.71h-32.55l-17.79-69.74c-3.78-13.77-7.41-30.05-11.05-44.42h-.83c-3.29,14.54-6.92,30.65-10.7,44.42l-17.87,69.74h-31.44l42.72-137.71ZM1009.5,287.94h65.45v24.19h-65.45v-24.19Z"/>
      <path class="cls-1" d="M1123.95,207.23h30.75v111.6h53.69v26.11h-84.44v-137.71Z"/>
      <path class="cls-1" d="M1239.35,207.23h85.23v26.11h-54.48v27.65h46.38v26.11h-46.38v31.73h56.56v26.11h-87.32v-137.71Z"/>
      <path class="cls-1" d="M1352.22,325.38l17.66-20.98c9.67,8.37,22.22,14.13,33.41,14.13,12.84,0,19.12-5.03,19.12-13.05,0-8.52-7.73-11.25-19.62-16.11l-17.67-7.49c-14.1-5.7-27.45-17.21-27.45-36.87,0-22.42,20.13-40.31,48.45-40.31,15.66,0,32.04,6.14,43.75,17.73l-15.52,19.27c-8.96-6.84-17.48-10.59-28.23-10.59s-17.35,4.39-17.35,12.13c0,8.3,8.9,11.31,20.77,16.01l17.33,6.98c16.61,6.68,26.98,17.68,26.98,36.79,0,22.46-18.83,41.92-51.24,41.92-17.7,0-36.51-6.66-50.38-19.56Z"/>
    </g>
  </g>
</svg>