<?xml version="1.0" encoding="UTF-8"?>
<svg id="Capa_2" data-name="Capa 2" xmlns="http://www.w3.org/2000/svg" xmlns:xlink="http://www.w3.org/1999/xlink" viewBox="0 0 1266.76 344.94">
  <defs>
    <style>
      .cls-1 {
        fill: #fff;
      }

      .cls-2 {
        filter: url(#outer-glow-1);
      }
    </style>
    <filter id="outer-glow-1" x="0" y="0" width="288.77" height="344.94" filterUnits="userSpaceOnUse">
      <feOffset dx="0" dy="0"/>
      <feGaussianBlur result="blur" stdDeviation="3"/>
      <feFlood flood-color="#375f28" flood-opacity=".5"/>
      <feComposite in2="blur" operator="in"/>
      <feComposite in="SourceGraphic"/>
    </filter>
  </defs>
  <g id="Capa_1-2" data-name="Capa 1">
    <g class="cls-2">
      <path class="cls-1" d="M108.8,334.09l2.58-30.15C30.69,266.89-11.84,175.57,2.88,88.94c31.25,8.67,59.68,27.33,82.98,49.51,1.01.78,1.28,1.93,3,1.49-3.91-50.4,20.27-96.94,49.59-135.91.95-1.12,3.27-4.26,4.77-4.01,29.86,34.24,61.61,92,57.65,140.93,22.49-20.99,53.29-44.88,83.47-51.04,18.07,79.88-20.57,164.67-91.8,206.21-2.36,1.38-12.43,5.58-13.18,6.81l1.88,31.42c.34,5.75-4.23,10.6-9.98,10.6h-52.49c-5.86,0-10.46-5.01-9.96-10.85ZM167.87,329.93l-13.58-107.62c-.32-2.51.17-5.06,1.36-7.3,39.52-73.99,41.68-117.27-12.28-188.07-29.52,38.67-52.36,92.12-31.97,139.95,5.6,12.98,5.99,10.7,22.93,48.27.96,2.13,1.29,4.49.94,6.8-2.28,15.11-11.1,75.27-12.4,107.97h45.01ZM43.87,159.58l76.5,81.97c7.71-48.88-54.85-108.57-96.47-127.5-1.88-.79-6.89-4.04-7.87-.82-3.08,67.97,32.71,146.79,98.84,171.35l2.07-17.49c-21.82-36.82-50.76-70.85-73.07-107.51ZM244.93,159.51c-21.57,37.9-48.17,70.65-71.18,107.59l2.69,17.43c55-22.33,90.22-85.52,95.42-143.46.44-4.37,2.33-26.43.08-28.07s-7.64,1.85-10.09,3.06c-41.72,21.73-97.14,75.57-91.48,125.5l74.56-82.05Z"/>
      <polygon class="cls-1" points="144.86 66.94 135.87 187.94 153.87 187.94 144.86 66.94"/>
    </g>
    <g>
      <path class="cls-1" d="M338.07,34.9h44.38c47.74,0,78.69,21.25,78.69,69.75s-30.94,70.98-76.67,70.98h-46.4V34.9ZM380.28,149.63c26.17,0,44.08-11.39,44.08-44.98s-17.91-43.75-44.08-43.75h-6.32v88.73h6.32Z"/>
      <path class="cls-1" d="M486.4,34.9h98.25v27.09h-62.36v27.7h53.1v27.09h-53.1v31.77h64.76v27.09h-100.65V34.9Z"/>
      <path class="cls-1" d="M613.26,34.9h35.89v113.64h61.49v27.09h-97.39V34.9Z"/>
      <path class="cls-1" d="M736.85,34.9h35.89v140.73h-35.89V34.9Z"/>
      <path class="cls-1" d="M797.16,106.08c0-45.08,34.46-71.17,73.97-71.17,20.25,0,36.59,8.27,47.17,17.65l-18.91,19.98c-7.83-6.3-16.2-10.73-27.46-10.73-21.16,0-38,16.25-38,43.23s14.82,43.72,37.44,43.72c12.77,0,22.83-5.48,30.39-12.6l18.91,19.56c-13,13.13-30.35,19.93-50.58,19.93-39.68,0-72.93-23.78-72.93-69.56Z"/>
      <path class="cls-1" d="M944.4,34.9h35.89v140.73h-35.89V34.9Z"/>
      <path class="cls-1" d="M1050.67,34.9h43l48.98,140.73h-37.98l-20.22-71.02c-4.3-14.01-8.45-30.69-12.59-45.32h-.96c-3.75,14.81-7.89,31.31-12.19,45.32l-20.3,71.02h-36.7l48.97-140.73ZM1034.23,117.35h75.35v25.09h-75.35v-25.09Z"/>
      <path class="cls-1" d="M1149.62,156.03l20.6-21.38c11.12,8.34,25.5,14.09,38.24,14.09,14.55,0,21.6-4.91,21.6-12.79,0-8.36-8.8-11.04-22.42-15.89l-20.25-7.48c-16.26-5.73-31.55-17.36-31.55-37.07,0-22.55,23.23-40.61,55.92-40.61,17.99,0,36.9,6.13,50.45,17.82l-18.1,19.63c-10.33-6.82-20.06-10.56-32.35-10.56s-19.62,4.29-19.62,11.9c0,8.16,10.11,11.12,23.8,15.84l19.84,6.96c19.13,6.7,30.98,17.8,30.98,36.94,0,22.58-21.69,42.19-59.11,42.19-20.29,0-42-6.65-58.03-19.61Z"/>
      <g>
        <path class="cls-1" d="M338.07,207.38h26.23l29.54,57,11.2,25.18h.69c-1.21-12.12-3.27-28.18-3.27-41.69v-40.49h24.39v114.62h-26.23l-29.54-57.15-11.2-25.04h-.7c1.21,12.64,3.27,28,3.27,41.51v40.68h-24.39v-114.62Z"/>
        <path class="cls-1" d="M480.71,207.38h30.63l35.56,114.62h-27.09l-14.81-58.05c-3.15-11.46-6.17-25.01-9.2-36.97h-.69c-2.74,12.1-5.76,25.51-8.91,36.97l-14.87,58.05h-26.17l35.56-114.62ZM468.6,274.55h54.47v20.14h-54.47v-20.14Z"/>
        <path class="cls-1" d="M574.72,229.11h-31.16v-21.73h87.92v21.73h-31.16v92.88h-25.59v-92.88Z"/>
        <path class="cls-1" d="M654.59,267.77v-60.39h25.59v62.99c0,22.04,6.99,29.65,19.65,29.65s20.06-7.62,20.06-29.65v-62.99h24.68v60.39c0,37.79-15.45,54.23-44.74,54.23s-45.25-16.44-45.25-54.23Z"/>
        <path class="cls-1" d="M776.8,207.38h40.77c24.01,0,43.7,8.44,43.7,35.69s-19.68,37.68-43.7,37.68h-15.18v41.25h-25.6v-114.62ZM815.49,260.17c13.46,0,20.69-5.83,20.69-17.11s-7.23-15.12-20.69-15.12h-13.09v32.22h13.09ZM812.9,273.92l17.7-16.58,36.13,64.66h-28.64l-25.19-48.08Z"/>
        <path class="cls-1" d="M909.03,207.38h30.63l35.56,114.62h-27.09l-14.81-58.05c-3.15-11.46-6.17-25.01-9.2-36.97h-.69c-2.74,12.1-5.76,25.51-8.91,36.97l-14.87,58.05h-26.17l35.56-114.62ZM896.92,274.55h54.47v20.14h-54.47v-20.14Z"/>
        <path class="cls-1" d="M992.18,207.38h25.6v92.88h44.69v21.73h-70.28v-114.62Z"/>
        <path class="cls-1" d="M1088.23,207.38h70.94v21.73h-45.34v23.01h38.6v21.73h-38.6v26.41h47.08v21.73h-72.67v-114.62Z"/>
        <path class="cls-1" d="M1182.17,305.72l14.7-17.46c8.05,6.97,18.49,11.76,27.81,11.76,10.68,0,15.91-4.18,15.91-10.87,0-7.09-6.44-9.36-16.33-13.41l-14.71-6.24c-11.73-4.74-22.85-14.33-22.85-30.69,0-18.66,16.76-33.55,40.32-33.55,13.04,0,26.67,5.11,36.42,14.75l-12.92,16.04c-7.46-5.69-14.55-8.82-23.5-8.82s-14.44,3.66-14.44,10.09c0,6.91,7.41,9.41,17.29,13.33l14.43,5.81c13.82,5.56,22.46,14.71,22.46,30.63,0,18.7-15.67,34.89-42.65,34.89-14.73,0-30.39-5.55-41.94-16.28Z"/>
      </g>
    </g>
  </g>
</svg>