<?xml version="1.0" encoding="UTF-8"?>
<svg id="Capa_2" data-name="Capa 2" xmlns="http://www.w3.org/2000/svg" xmlns:xlink="http://www.w3.org/1999/xlink" viewBox="0 0 288.77 344.94">
  <defs>
    <style>
      .cls-1 {
        fill: #159642;
      }

      .cls-2 {
        filter: url(#outer-glow-1);
      }
    </style>
    <filter id="outer-glow-1" x="0" y="0" width="288.77" height="344.94" filterUnits="userSpaceOnUse">
      <feOffset dx="0" dy="0"/>
      <feGaussianBlur result="blur" stdDeviation="3"/>
      <feFlood flood-color="#375f28" flood-opacity=".5"/>
      <feComposite in2="blur" operator="in"/>
      <feComposite in="SourceGraphic"/>
    </filter>
  </defs>
  <g id="Capa_1-2" data-name="Capa 1">
    <g class="cls-2">
      <path class="cls-1" d="M108.8,334.09l2.58-30.15C30.69,266.89-11.84,175.57,2.88,88.94c31.25,8.67,59.68,27.33,82.98,49.51,1.01.78,1.28,1.93,3,1.49-3.91-50.4,20.27-96.94,49.59-135.91.95-1.12,3.27-4.26,4.77-4.01,29.86,34.24,61.61,92,57.65,140.93,22.49-20.99,53.29-44.88,83.47-51.04,18.07,79.88-20.57,164.67-91.8,206.21-2.36,1.38-12.43,5.58-13.18,6.81l1.88,31.42c.34,5.75-4.23,10.6-9.98,10.6h-52.49c-5.86,0-10.46-5.01-9.96-10.85ZM167.87,329.94l-13.58-107.62c-.32-2.51.17-5.06,1.36-7.3,39.52-73.99,41.68-117.27-12.28-188.07-29.52,38.67-52.36,92.12-31.97,139.95,5.6,12.98,5.99,10.7,22.92,48.26.96,2.13,1.29,4.5.94,6.81-2.28,15.13-11.1,75.26-12.4,107.96h45.01ZM43.87,159.95l76.5,81.97c7.71-48.88-54.85-108.57-96.47-127.5-1.88-.79-6.89-4.04-7.87-.82-3.08,67.97,32.71,146.79,98.84,171.35l2.07-17.49c-21.82-36.82-50.76-70.85-73.07-107.51ZM244.93,159.87c-21.57,37.9-48.17,70.65-71.18,107.59l2.69,17.43c55-22.33,90.22-85.52,95.42-143.46.44-4.37,2.33-26.43.08-28.07s-7.64,1.85-10.09,3.06c-41.72,21.73-97.14,75.57-91.48,125.5l74.56-82.05Z"/>
      <polygon class="cls-1" points="144.86 66.94 135.87 187.94 153.87 187.94 144.86 66.94"/>
    </g>
  </g>
</svg>