<?xml version="1.0" encoding="UTF-8"?>
<svg id="Capa_2" data-name="Capa 2" xmlns="http://www.w3.org/2000/svg" xmlns:xlink="http://www.w3.org/1999/xlink" viewBox="0 0 786.98 344.94">
  <defs>
    <style>
      .cls-1 {
        fill: #fff;
      }

      .cls-2 {
        filter: url(#outer-glow-1);
      }
    </style>
    <filter id="outer-glow-1" x="0" y="0" width="288.77" height="344.94" filterUnits="userSpaceOnUse">
      <feOffset dx="0" dy="0"/>
      <feGaussianBlur result="blur" stdDeviation="3"/>
      <feFlood flood-color="#375f28" flood-opacity=".5"/>
      <feComposite in2="blur" operator="in"/>
      <feComposite in="SourceGraphic"/>
    </filter>
  </defs>
  <g id="Capa_1-2" data-name="Capa 1">
    <g class="cls-2">
      <path class="cls-1" d="M108.8,334.09l2.58-30.15C30.69,266.89-11.84,175.57,2.88,88.94c31.25,8.67,59.68,27.33,82.98,49.51,1.01.78,1.28,1.93,3,1.49-3.91-50.4,20.27-96.94,49.59-135.91.95-1.12,3.27-4.26,4.77-4.01,29.86,34.24,61.61,92,57.65,140.93,22.49-20.99,53.29-44.88,83.47-51.04,18.07,79.88-20.57,164.67-91.8,206.21-2.36,1.38-12.43,5.58-13.18,6.81l1.88,31.42c.34,5.75-4.23,10.6-9.98,10.6h-52.49c-5.86,0-10.46-5.01-9.96-10.85ZM167.87,329.93l-13.58-107.62c-.32-2.51.17-5.06,1.36-7.3,39.52-73.99,41.68-117.27-12.28-188.07-29.52,38.67-52.36,92.12-31.97,139.95,5.6,12.98,5.99,10.7,22.93,48.27.96,2.13,1.29,4.49.94,6.8-2.28,15.11-11.1,75.27-12.4,107.97h45.01ZM43.87,159.58l76.5,81.97c7.71-48.88-54.85-108.57-96.47-127.5-1.88-.79-6.89-4.04-7.87-.82-3.08,67.97,32.71,146.79,98.84,171.35l2.07-17.49c-21.82-36.82-50.76-70.85-73.07-107.51ZM244.93,159.51c-21.57,37.9-48.17,70.65-71.18,107.59l2.69,17.43c55-22.33,90.22-85.52,95.42-143.46.44-4.37,2.33-26.43.08-28.07s-7.64,1.85-10.09,3.06c-41.72,21.73-97.14,75.57-91.48,125.5l74.56-82.05Z"/>
      <polygon class="cls-1" points="144.86 66.94 135.87 187.94 153.87 187.94 144.86 66.94"/>
    </g>
    <path class="cls-1" d="M338.07,90.54h21.45c23.08,0,38.04,10.27,38.04,33.72s-14.96,34.31-37.06,34.31h-22.43v-68.03ZM358.47,146c12.65,0,21.31-5.51,21.31-21.74s-8.66-21.15-21.31-21.15h-3.05v42.89h3.05Z"/>
    <path class="cls-1" d="M409.77,90.54h47.49v13.09h-30.14v13.39h25.67v13.09h-25.67v15.35h31.3v13.09h-48.65v-68.03Z"/>
    <path class="cls-1" d="M471.09,90.54h17.35v54.93h29.72v13.09h-47.08v-68.03Z"/>
    <path class="cls-1" d="M530.83,90.54h17.35v68.03h-17.35v-68.03Z"/>
    <path class="cls-1" d="M559.99,124.95c0-21.79,16.66-34.4,35.75-34.4,9.79,0,17.69,4,22.8,8.53l-9.14,9.66c-3.79-3.05-7.83-5.19-13.27-5.19-10.23,0-18.37,7.86-18.37,20.9s7.17,21.13,18.1,21.13c6.17,0,11.04-2.65,14.69-6.09l9.14,9.46c-6.29,6.35-14.67,9.63-24.45,9.63-19.18,0-35.25-11.5-35.25-33.62Z"/>
    <path class="cls-1" d="M631.16,90.54h17.35v68.03h-17.35v-68.03Z"/>
    <path class="cls-1" d="M682.53,90.54h20.78l23.67,68.03h-18.36l-9.77-34.33c-2.08-6.77-4.08-14.84-6.09-21.91h-.46c-1.81,7.16-3.81,15.13-5.89,21.91l-9.81,34.33h-17.74l23.67-68.03ZM674.58,130.4h36.42v12.13h-36.42v-12.13Z"/>
    <path class="cls-1" d="M730.36,149.09l9.96-10.33c5.37,4.03,12.32,6.81,18.49,6.81,7.04,0,10.44-2.37,10.44-6.18,0-4.04-4.25-5.34-10.84-7.68l-9.79-3.62c-7.86-2.77-15.25-8.39-15.25-17.92,0-10.9,11.23-19.63,27.03-19.63,8.7,0,17.84,2.96,24.39,8.61l-8.75,9.49c-4.99-3.3-9.7-5.1-15.64-5.1s-9.49,2.07-9.49,5.75c0,3.94,4.89,5.37,11.51,7.66l9.59,3.36c9.25,3.24,14.97,8.6,14.97,17.86,0,10.91-10.49,20.4-28.57,20.4-9.81,0-20.3-3.21-28.05-9.48Z"/>
    <g>
      <path class="cls-1" d="M338.07,173.91h12.68l14.28,27.56,5.41,12.17h.34c-.58-5.86-1.58-13.62-1.58-20.15v-19.57h11.79v55.4h-12.68l-14.28-27.63-5.41-12.1h-.34c.58,6.11,1.58,13.53,1.58,20.06v19.66h-11.79v-55.4Z"/>
      <path class="cls-1" d="M407.02,173.91h14.8l17.19,55.4h-13.09l-7.16-28.06c-1.52-5.54-2.98-12.09-4.44-17.87h-.34c-1.32,5.85-2.78,12.33-4.31,17.87l-7.19,28.06h-12.65l17.19-55.4ZM401.16,206.39h26.33v9.73h-26.33v-9.73Z"/>
      <path class="cls-1" d="M452.46,184.42h-15.06v-10.5h42.5v10.5h-15.06v44.9h-12.37v-44.9Z"/>
      <path class="cls-1" d="M491.07,203.11v-29.19h12.37v30.45c0,10.65,3.38,14.33,9.5,14.33s9.7-3.68,9.7-14.33v-30.45h11.93v29.19c0,18.27-7.47,26.21-21.63,26.21s-21.87-7.95-21.87-26.21Z"/>
      <path class="cls-1" d="M550.14,173.91h19.71c11.61,0,21.12,4.08,21.12,17.25s-9.51,18.21-21.12,18.21h-7.34v19.94h-12.37v-55.4ZM568.85,199.43c6.51,0,10-2.82,10-8.27s-3.5-7.31-10-7.31h-6.33v15.58h6.33ZM567.59,206.08l8.56-8.01,17.47,31.25h-13.84l-12.18-23.24Z"/>
      <path class="cls-1" d="M614.06,173.91h14.8l17.19,55.4h-13.09l-7.16-28.06c-1.52-5.54-2.98-12.09-4.44-17.87h-.34c-1.32,5.85-2.78,12.33-4.31,17.87l-7.19,28.06h-12.65l17.19-55.4ZM608.21,206.39h26.33v9.73h-26.33v-9.73Z"/>
      <path class="cls-1" d="M654.25,173.91h12.37v44.9h21.6v10.5h-33.97v-55.4Z"/>
      <path class="cls-1" d="M700.68,173.91h34.29v10.5h-21.92v11.12h18.66v10.5h-18.66v12.76h22.76v10.5h-35.13v-55.4Z"/>
      <path class="cls-1" d="M746.09,221.45l7.11-8.44c3.89,3.37,8.94,5.69,13.44,5.69,5.16,0,7.69-2.02,7.69-5.25,0-3.43-3.11-4.53-7.89-6.48l-7.11-3.02c-5.67-2.29-11.04-6.93-11.04-14.83,0-9.02,8.1-16.22,19.49-16.22,6.3,0,12.89,2.47,17.6,7.13l-6.24,7.75c-3.61-2.75-7.03-4.26-11.36-4.26s-6.98,1.77-6.98,4.88c0,3.34,3.58,4.55,8.36,6.44l6.97,2.81c6.68,2.69,10.86,7.11,10.86,14.8,0,9.04-7.58,16.87-20.62,16.87-7.12,0-14.69-2.68-20.27-7.87Z"/>
    </g>
  </g>
</svg>